# xmcd
#
# Track frame offsets:
#	150
#	15249
#	27595
#	51469
#	64195
#	78305
#	91227
#	106228
#	121958
#	137557
#
# Disc length: 2130 seconds
#
# Revision: 1
# Processed by: cddbd v1.5.2PL0 Copyright (c) Steve Scherf et al.
# Submitted via: audiograbber 1.83.01
#
DISCID=7b08500a
DTITLE=Aaron Watson - An Aaron Watson Family Christmas
DYEAR=2018
DGENRE=Holiday
TTITLE0=Lonely Lonestar Christmas
TTITLE1=Santa Claus is Coming to Town
TTITLE2=She Stared at Him All Night
TTITLE3=Christmas Time is Here
TTITLE4=Baby It's Cold Outside
TTITLE5=The Christmas Waltz
TTITLE6=Jingle Bells
TTITLE7=Silent Night
TTITLE8=Rudolph the Red Nosed Reindeer
TTITLE9=Have Yourself a Merry Little Christmas
EXTD=
EXTT0=
EXTT1=
EXTT2=
EXTT3=
EXTT4=
EXTT5=
EXTT6=
EXTT7=
EXTT8=
EXTT9=
PLAYORDER=
